PathFileType	4	(X/Y/Z)	C:\Users\Biomechanik\SynologyDrive\AlexP\Athlete_03\Athlete_3_25_03_31\Walking_08\marker_experimental.trc
DataRate	CameraRate	NumFrames	NumMarkers	Units	OrigDataRate	OrigDataStartFrame	OrigNumFrames
200.000000	200.000000	4	53	mm	200.000000	194	222
Frame#	Time	GLAB			RFHD			LFHD			C7			T6			SPINMOL			SPINM2			SPINM3			T12			BELTOL			BELT2			BELT3			SACROL			SACR2			SACR3			LTHOL			LTH2			LTH3			LSHAOL			LSHA2			LSHA3			LHEE			LTOE			LM5			RTHOL			RTH2			RTH3			RSHAOL			RSHA2			RSHA3			RHEE			RTOE			RM5			STRN			XIPH			LACR			LUAOL			LUA2			LUA3			LLAOL			LLA2			LLA3			LWRR			LWRU			RACR			RUAOL			RUA2			RUA3			RLAOL			RLA2			RLA3			RWRR			RWRU			
		X1	Y1	Z1	X2	Y2	Z2	X3	Y3	Z3	X4	Y4	Z4	X5	Y5	Z5	X6	Y6	Z6	X7	Y7	Z7	X8	Y8	Z8	X9	Y9	Z9	X10	Y10	Z10	X11	Y11	Z11	X12	Y12	Z12	X13	Y13	Z13	X14	Y14	Z14	X15	Y15	Z15	X16	Y16	Z16	X17	Y17	Z17	X18	Y18	Z18	X19	Y19	Z19	X20	Y20	Z20	X21	Y21	Z21	X22	Y22	Z22	X23	Y23	Z23	X24	Y24	Z24	X25	Y25	Z25	X26	Y26	Z26	X27	Y27	Z27	X28	Y28	Z28	X29	Y29	Z29	X30	Y30	Z30	X31	Y31	Z31	X32	Y32	Z32	X33	Y33	Z33	X34	Y34	Z34	X35	Y35	Z35	X36	Y36	Z36	X37	Y37	Z37	X38	Y38	Z38	X39	Y39	Z39	X40	Y40	Z40	X41	Y41	Z41	X42	Y42	Z42	X43	Y43	Z43	X44	Y44	Z44	X45	Y45	Z45	X46	Y46	Z46	X47	Y47	Z47	X48	Y48	Z48	X49	Y49	Z49	X50	Y50	Z50	X51	Y51	Z51	X52	Y52	Z52	X53	Y53	Z53	

195	0.97	879.9421386718749	1596.731079101562	147.9463348388674	827.7202758789061	1621.970703125	211.4606323242189	838.9469604492186	1619.347045898438	73.07421875000016	654.2383422851561	1438.717529296875	131.7892608642579	592.8052978515624	1270.814453125	135.3625640869142	583.2730102539061	1230.232177734375	115.9328842163087	579.7734374999999	1224.744750976562	165.8380737304689	587.0665283203124	1166.697387695312	134.2547149658204	608.5728149414061	1100.718505859375	139.8862915039064	571.1455688476561	1067.5380859375	129.3357849121095	573.7587280273436	1064.901977539062	179.6324005126954	565.4377441406249	1005.532043457031	150.1908721923829	580.7142944335936	957.8671264648438	133.6243286132814	586.7630004882811	953.4193115234375	185.0604095458986	566.0494995117188	896.988037109375	156.0330200195314	625.1609497070312	685.2409057617188	-31.7245693206786	568.3226318359375	640.8229370117188	1.951405644416913	613.6705322265625	627.4608764648438	-14.14053916931141	543.9339599609375	336.1968383789063	-0.8811046481131508	484.51123046875	285.6555175781251	15.6730089187623	533.53466796875	275.6088867187501	9.065499305725195	432.467041015625	98.58947753906253	111.7295074462891	644.3551025390625	43.9323997497559	110.9118423461915	594.1851196289062	29.83621215820316	9.161490440368761	767.6471557617186	670.91943359375	334.3700561523439	841.8687133789061	643.0393676757812	340.513641357422	801.7024536132811	620.6980590820312	324.2278747558595	859.9416503906249	344.2677001953126	321.4185791015627	908.8698120117186	283.1112976074219	324.3118896484377	862.2582397460938	284.0883178710938	306.9051818847658	891.2107543945312	65.53897857666021	205.1053009033205	1097.05712890625	103.1330795288087	230.3560180664064	1048.668579101562	66.17503356933601	324.2100219726564	821.4896240234374	1333.424072265625	140.2916564941408	833.0343627929686	1188.821899414062	140.2263488769533	734.3041381835936	1398.40234375	-37.21937942504869	750.9991455078124	1251.828857421875	-142.693145751953	749.8525390624999	1189.222900390625	-162.8312988281249	794.5966186523436	1202.572265625	-140.6646423339842	862.9595947265624	1013.230651855469	-189.6473999023436	864.2191772460936	936.087646484375	-172.1701354980467	902.5303344726561	967.0072631835938	-181.4595947265623	976.6519165039062	895.0208129882814	-169.0370788574217	1002.241638183594	927.2350463867189	-100.2719955444334	731.5108032226561	1394.202026367188	306.7165527343751	685.7579345703123	1252.846801757812	409.1846008300782	698.8844604492185	1188.937744140625	420.681854248047	649.1791381835935	1200.984741210938	427.3413391113282	642.0867919921873	984.724365234375	472.0277709960939	682.5737304687498	928.8229370117188	512.2337646484376	646.0596313476561	921.521728515625	481.2178344726564	666.7689819335936	837.8015747070312	507.9265441894532	715.3494262695311	811.8524169921875	447.1674194335939	
196	0.975	887.1467895507811	1595.2158203125	148.6887664794924	834.9588623046874	1620.387939453125	212.2636871337892	846.1334838867186	1617.978759765625	73.86914062500016	661.2942504882811	1437.327270507812	132.4161834716798	599.8551025390624	1269.439331054688	135.9208221435548	590.2734985351561	1228.843627929688	116.4861602783204	586.8587036132811	1223.328979492188	166.3927612304689	594.1217651367186	1165.300537109375	134.7742309570314	615.7153930664061	1099.306274414062	140.3796234130861	578.3585205078124	1066.13037109375	129.8261871337892	581.0877075195311	1063.40869140625	180.1082458496095	572.6970825195311	1004.085693359375	150.5952758789064	587.9197998046874	956.9921875	134.0963287353517	594.2451782226561	952.3187866210938	185.4270324707032	572.8966064453125	896.1563110351562	156.3994445800782	629.8374633789062	684.95703125	-31.67886352539051	572.7850341796875	641.0479736328125	2.322124242782698	617.9078369140625	627.29052734375	-14.03141117095936	546.0286865234375	336.4280090332032	-0.8367593288420628	486.2423400878906	286.3132324218751	15.71042442321786	535.2191162109375	275.9307250976563	9.209015846252539	432.8658752441406	99.49258422851565	111.8263702392579	644.3703002929688	43.83073425292973	110.9714431762696	594.2557373046875	29.85494422912601	9.217104911804308	773.5203247070311	668.764404296875	333.1278686523439	847.5040283203124	640.4669799804688	340.157684326172	807.5220336914061	618.4321899414062	322.9908752441408	870.4701538085936	342.1474304199219	320.7386474609377	921.0686645507811	282.3839721679688	324.075408935547	874.482177734375	282.0512695312501	306.5145263671877	910.061279296875	63.48651123046881	205.7321624755861	1114.750244140625	107.2038726806641	230.4672698974611	1067.726806640625	69.07858276367195	324.5622558593752	828.5864257812499	1331.929931640625	140.6555938720705	840.1160278320311	1187.361694335938	140.3448486328126	741.1602172851561	1397.257202148438	-36.67282485961901	758.1764526367186	1250.925170898438	-142.2835693359374	757.3409423828124	1188.329956054688	-162.4680938720702	802.0324096679686	1201.900634765625	-140.325973510742	871.7870483398436	1013.237731933594	-189.3204193115233	873.8236083984374	936.098876953125	-171.8241729736326	911.8293457031249	967.4393310546875	-181.0204772949217	986.6705322265625	896.2318115234376	-168.3908691406248	1011.737121582031	928.7871704101564	-99.545700073242	738.6370239257811	1392.65185546875	307.2147216796876	692.608947753906	1251.290771484375	409.538299560547	705.5461425781248	1187.358764648438	421.0276489257814	655.8522949218748	1199.536743164062	427.621063232422	648.0267333984373	983.306884765625	472.2122802734376	688.2408447265624	927.2579345703125	512.4860839843751	651.7876586914061	920.0858154296875	481.3916015625001	672.1616210937499	836.29638671875	508.1418457031251	720.7697753906249	810.17626953125	447.396942138672	
197	0.98	894.3998413085936	1593.681518554688	149.4740142822267	842.2438964843749	1618.78076171875	213.1096954345705	853.3666381835936	1616.59033203125	74.70764923095719	668.4143676757811	1435.904663085938	133.0796813964845	606.9713134765624	1268.036987304688	136.4979858398439	597.3420410156249	1227.428344726562	117.0555343627931	594.0052490234374	1221.884033203125	166.962127685547	601.2416381835936	1163.876342773438	135.3075561523439	622.9267578124999	1097.864501953125	140.8811492919923	585.6480102539061	1064.703125	130.3296508789064	588.4918823242186	1061.895751953125	180.5966796875001	580.0252075195311	1002.621154785156	151.0135192871095	595.1838989257811	956.094482421875	134.6065826416017	601.8280639648436	951.1875	185.8134155273439	579.8190307617188	895.3010864257812	156.8082427978517	634.569580078125	684.6766357421875	-31.60842132568348	577.33154296875	641.270263671875	2.745673656463729	622.2138671875	627.1233520507812	-13.90045166015614	548.201171875	336.6849060058594	-0.7908629178999848	488.0478210449219	287.0101013183594	15.74972915649423	536.9738159179688	276.2847900390626	9.35477066040049	433.3065490722656	100.4747161865235	111.9151306152345	644.3909912109375	43.72435760498051	111.0372390747071	594.3369750976562	29.87791061401371	9.278282165527452	779.3635864257811	666.5856323242188	331.9107666015627	853.0915527343749	637.8714599609375	339.9005126953127	813.3258666992186	616.1417236328125	321.8047790527345	880.9778442382811	340.1200256347657	320.1355285644533	933.1694335937499	281.7442932128907	323.8459472656252	886.6210327148438	280.1575012207032	306.1864624023439	928.5330810546875	61.74027633666998	206.3406219482424	1131.9619140625	111.3542404174805	230.4497985839846	1086.350830078125	72.11872100830085	324.8060607910159	835.7550048828124	1330.402465820312	141.049041748047	847.2666625976561	1185.870483398438	140.4859008789064	748.0916137695311	1396.083740234375	-36.09420394897447	765.4004516601561	1249.977661132812	-141.8368682861327	764.8658447265624	1187.397583007812	-162.0752105712889	809.5024414062499	1201.175415039062	-139.951446533203	880.5866088867186	1013.182678222656	-188.9664611816405	883.3746948242186	936.0546875	-171.4541625976561	921.0805664062499	967.7990112304688	-180.5589752197264	996.6087036132812	897.3530883789064	-167.7281799316405	1021.168334960937	930.2335205078126	-98.80987548828107	745.8251953124999	1391.056396484375	307.7466430664064	699.5382080078123	1249.685546875	409.9123535156251	712.3002319335935	1185.728271484375	421.3999938964845	662.6169433593748	1198.031127929688	427.9282531738282	654.1040039062498	981.8259887695312	472.417449951172	694.0624999999999	925.6329956054688	512.7431640625001	657.6596069335936	918.5890502929688	481.5831909179689	677.7173461914061	834.7318115234375	508.362518310547	726.3331909179686	808.4525756835938	447.6151428222657	
198	0.985	901.7045898437499	1592.134399414062	150.3026428222658	849.5784912109374	1617.155517578125	213.999237060547	860.6494750976561	1615.187255859375	75.59027862548844	675.6027221679686	1434.455444335938	133.7799530029298	614.1586914062499	1266.613159179688	137.0942230224611	604.4835815429686	1225.991943359375	117.6408462524415	601.2180175781249	1220.414916992188	167.5460205078126	608.4314575195311	1162.430419921875	135.8540496826173	630.2102050781249	1096.39892578125	141.3888092041017	593.0166015624999	1063.262573242188	130.846649169922	595.9735717773436	1060.369995117188	181.0983886718751	587.4241333007811	1001.14501953125	151.4463500976564	602.5093994140624	955.1751708984375	135.1552886962892	609.5022583007811	950.03076171875	186.2253265380861	586.8230590820312	894.4224243164062	157.2593994140626	639.3689575195312	684.4022216796875	-31.51341056823719	581.9741821289062	641.4895629882812	3.21977090835582	626.6012573242188	626.9609985351562	-13.7487745285033	550.4598388671875	336.9722900390626	-0.7445844411848964	489.9359436035156	287.7526245117188	15.79216575622568	538.8058471679688	276.6761169433594	9.500299453735451	433.7954711914062	101.5453338623047	111.994598388672	644.4208984375	43.61322021484379	111.1073303222657	594.4298706054688	29.90627479553226	9.345016479492296	785.2147216796874	664.399169921875	330.7346496582033	858.6723632812499	635.2769775390625	339.7408142089845	819.1523437499999	613.84619140625	320.6803588867189	891.4497680664061	338.1838684082032	319.6018676757814	945.1529541015624	281.1774902343751	323.6175231933595	898.6529541015625	278.3975524902344	305.9101867675783	946.5778198242188	60.27375030517584	206.9127807617189	1148.66552734375	115.5277709960938	230.3021545410158	1104.50244140625	75.23415374755866	324.9328308105471	842.9992675781249	1328.84814453125	141.4731750488283	854.4899291992186	1184.354370117188	140.6508026123049	755.1038818359374	1394.88720703125	-35.48263168334947	772.6752319335936	1248.991455078125	-141.3516387939452	772.4316406249999	1186.431762695312	-161.6545562744139	817.0108032226561	1200.401000976562	-139.541793823242	889.3589477539061	1013.066650390625	-188.5858459472655	892.8710327148436	935.95556640625	-171.0598907470701	930.2842407226561	968.0859985351564	-180.0755157470701	1006.465637207031	898.3817749023439	-167.0488128662107	1030.536865234375	931.5711059570314	-98.06630706787091	753.0805664062499	1389.420166015625	308.3135681152345	706.5482788085935	1248.036376953125	410.3062438964845	719.1503906249998	1184.05029296875	421.7985839843751	669.4767456054685	1196.471557617188	428.2619628906251	660.3226928710935	980.2861938476562	472.6421813964845	700.0419921874999	923.9525146484375	513.0045776367189	663.6791381835936	917.0360107421875	481.7913818359376	683.4378662109374	833.1118774414062	508.5876770019532	732.0433959960936	806.6848754882812	447.824432373047	
